<svg xmlns="http://www.w3.org/2000/svg" viewBox="0 0 512 512">
  <defs>
    <style>
      .cap { fill: #1e40af; }
      .accent { fill: #fbbf24; }
      .book { fill: none; stroke: #1e40af; stroke-width: 20; stroke-linecap: round; stroke-linejoin: round; }
    </style>
  </defs>
  
  <!-- Open Book -->
  <path class="book" d="M 120 320 Q 120 280 150 260 Q 180 240 256 240 Q 332 240 362 260 Q 392 280 392 320 L 392 420 Q 392 440 362 450 Q 332 460 256 460 Q 180 460 150 450 Q 120 440 120 420 Z"/>
  <path class="book" d="M 256 240 L 256 460"/>
  <line class="book" x1="150" y1="280" x2="150" y2="440"/>
  <line class="book" x1="362" y1="280" x2="362" y2="440"/>
  
  <!-- Graduation Cap -->
  <path class="cap" d="M 256 100 L 420 160 L 256 220 L 92 160 Z"/>
  <path class="cap" d="M 380 170 L 380 230 Q 380 260 256 280 Q 132 260 132 230 L 132 170"/>
  
  <!-- Tassel -->
  <circle class="accent" cx="256" cy="100" r="12"/>
  <rect class="accent" x="252" y="100" width="8" height="40" rx="4"/>
  <circle class="accent" cx="256" cy="145" r="10"/>
</svg>
