<svg xmlns="http://www.w3.org/2000/svg" viewBox="0 0 64 64">
  <defs>
    <linearGradient id="bg" x1="0" x2="0" y1="0" y2="1">
      <stop offset="0%" stop-color="#0f4c81"/>
      <stop offset="100%" stop-color="#0a2d4f"/>
    </linearGradient>
  </defs>
  <rect width="64" height="64" rx="12" fill="url(#bg)"/>
  <path d="M18 18h10c4 0 6 2 6 4v24c-2-2-4-3-6-3H18z" fill="#f2f6ff"/>
  <path d="M46 18H36c-4 0-6 2-6 4v24c2-2 4-3 6-3h10z" fill="#dbe4ff"/>
  <path d="M24 22h6M24 28h6M24 34h6" stroke="#0f4c81" stroke-width="2" stroke-linecap="round"/>
  <path d="M40 22h6M40 28h6M40 34h6" stroke="#1f3263" stroke-width="2" stroke-linecap="round"/>
  <path d="M18 18l-4 4v24l4-4zM46 18l4 4v24l-4-4z" fill="#f9c74f" opacity=".9"/>
</svg>
